name Run_500 02_newCOP3_v24.mot
datacolumns 19
datarows 155
range 0.985417 1.145833
DataType=double
version=3
OpenSimVersion=4.3-2021-08-27-4bc7ad9
endheader
time	R_ground_force_vx	R_ground_force_vy	R_ground_force_vz	R_ground_force_px	R_ground_force_py	R_ground_force_pz	L_ground_force_vx	L_ground_force_vy	L_ground_force_vz	L_ground_force_px	L_ground_force_py	L_ground_force_pz	R_ground_torque_x	R_ground_torque_y	R_ground_torque_z	L_ground_torque_x	L_ground_torque_y	L_ground_torque_z
0.985417	263.173279	1340.521118	-10.896528	0.697488	0	-0.5893350000000001	0	0	0	0	0	0	-0	1.019599	-0	0	0	0
0.9864579999999999	267.39624	1317.720581	-9.5312	0.6931389999999999	0	-0.589458	0	0	0	0	0	0	-0	0.781922	-0	0	0	0
0.9875	271.262512	1294.561401	-8.149699	0.688846	0	-0.58958	0	0	0	0	0	0	-0	0.5459000000000001	-0	0	0	0
0.988542	274.762299	1271.046875	-6.757572	0.684609	0	-0.589699	0	0	0	0	0	0	-0	0.312226	-0	0	0	0
0.989583	277.889252	1247.180542	-5.360939	0.680426	0	-0.589813	0	0	0	0	0	0	-0	0.081579	-0	0	0	0
0.990625	280.640045	1222.966675	-3.966411	0.676295	0	-0.5899219999999999	0	0	0	0	0	0	0	-0.145377	0	0	0	0
0.991667	283.01413	1198.410522	-2.580994	0.672211	0	-0.590024	0	0	0	0	0	0	0	-0.367997	0	0	0	0
0.992708	285.013306	1173.518799	-1.211979	0.66817	0	-0.5901189999999999	0	0	0	0	0	0	0	-0.585655	0	0	0	0
0.99375	286.641144	1148.299561	0.133179	0.664169	0	-0.590207	0	0	0	0	0	0	0	-0.797747	0	0	0	0
0.994792	287.902435	1122.762939	1.446982	0.660204	0	-0.590287	0	0	0	0	0	0	0	-1.003696	0	0	0	0
0.995833	288.802826	1096.921021	2.722023	0.656268	0	-0.59036	0	0	0	0	0	0	0	-1.202952	0	0	0	0
0.996875	289.348145	1070.787964	3.951113	0.652359	0	-0.590426	0	0	0	0	0	0	0	-1.394991	0	0	0	0
0.9979170000000001	289.54422	1044.380127	5.127413	0.648472	0	-0.590487	0	0	0	0	0	0	0	-1.579323	0	0	0	0
0.998958	289.396271	1017.716309	6.244547	0.644603	0	-0.590541	0	0	0	0	0	0	0	-1.755491	0	0	0	0
1	288.908966	990.8175660000001	7.29672	0.640751	0	-0.590591	0	0	0	0	0	0	0	-1.923069	0	0	0	0
1.001042	288.08606	963.707397	8.278815	0.636911	0	-0.590638	0	0	0	0	0	0	0	-2.081671	0	0	0	0
1.002083	286.93042	936.411621	9.186481000000001	0.633082	0	-0.590681	0	0	0	0	0	0	0	-2.230945	0	0	0	0
1.003125	285.444092	908.958557	10.016195	0.629263	0	-0.590723	0	0	0	0	0	0	0	-2.370577	0	0	0	0
1.004167	283.628387	881.378662	10.765324	0.625452	0	-0.590762	0	0	0	0	0	0	0	-2.500294	0	0	0	0
1.005208	281.484039	853.704956	11.432145	0.621648	0	-0.5908	0	0	0	0	0	0	0	-2.619862	0	0	0	0
1.00625	279.011444	825.97229	12.015867	0.617851	0	-0.5908369999999999	0	0	0	0	0	0	0	-2.729084	0	0	0	0
1.007292	276.210938	798.217834	12.51662	0.614062	0	-0.590872	0	0	0	0	0	0	0	-2.827805	0	0	0	0
1.008333	273.083069	770.480408	12.935428	0.610281	0	-0.590906	0	0	0	0	0	0	0	-2.915911	0	0	0	0
1.009375	269.628876	742.800537	13.274166	0.606507	0	-0.590936	0	0	0	0	0	0	0	-2.993327	0	0	0	0
1.010417	265.850189	715.220093	13.535502	0.602743	0	-0.590963	0	0	0	0	0	0	0	-3.060014	0	0	0	0
1.011458	261.749878	687.7818600000001	13.722818	0.598989	0	-0.590986	0	0	0	0	0	0	0	-3.115976	0	0	0	0
1.0125	257.332184	660.529602	13.840125	0.5952460000000001	0	-0.591001	0	0	0	0	0	0	0	-3.161251	0	0	0	0
1.013542	252.602753	633.507263	13.891963	0.591517	0	-0.591008	0	0	0	0	0	0	0	-3.195915	0	0	0	0
1.014583	247.569046	606.7588500000001	13.883296	0.587805	0	-0.591005	0	0	0	0	0	0	0	-3.220078	0	0	0	0
1.015625	242.24025	580.328247	13.819407	0.584112	0	-0.590989	0	0	0	0	0	0	0	-3.233884	0	0	0	0
1.016667	236.627472	554.258545	13.705781	0.580444	0	-0.590958	0	0	0	0	0	0	0	-3.237509	0	0	0	0
1.017708	230.74379	528.592041	13.548002	0.576804	0	-0.59091	0	0	0	0	0	0	0	-3.231159	0	0	0	0
1.01875	224.604111	503.369629	13.351643	0.573201	0	-0.590842	0	0	0	0	0	0	0	-3.21507	0	0	0	0
1.019792	218.22525	478.630859	13.122169	0.569643	0	-0.5907520000000001	0	0	0	0	0	0	0	-3.189502	0	0	0	0
1.020833	211.625763	454.413544	12.864845	0.56614	0	-0.590637	0	0	0	0	0	0	0	-3.154742	0	0	0	0
1.021875	204.825821	430.753326	12.584665	0.562705	0	-0.590496	0	0	0	0	0	0	0	-3.111097	0	0	0	0
1.022917	197.847092	407.683746	12.286278	0.559352	0	-0.590327	0	0	0	0	0	0	0	-3.058896	0	0	0	0
1.023958	190.712524	385.235809	11.973935	0.556099	0	-0.590129	0	0	0	0	0	0	0	-2.998487	0	0	0	0
1.025	183.446182	363.437744	11.65146	0.552967	0	-0.589901	0	0	0	0	0	0	0	-2.930233	0	0	0	0
1.026042	176.073044	342.31485	11.322214	0.549978	0	-0.589643	0	0	0	0	0	0	0	-2.854513	0	0	0	0
1.027083	168.618759	321.889374	10.989097	0.547157	0	-0.589356	0	0	0	0	0	0	0	-2.771715	0	0	0	0
1.028125	161.109497	302.180023	10.654543	0.544534	0	-0.589042	0	0	0	0	0	0	0	-2.68224	0	0	0	0
1.029167	153.571671	283.202118	10.320546	0.542137	0	-0.588703	0	0	0	0	0	0	0	-2.586497	0	0	0	0
1.030208	146.031708	264.967224	9.98868	0.539999	0	-0.588342	0	0	0	0	0	0	0	-2.4849	0	0	0	0
1.03125	138.515915	247.48317	9.660143	0.538153	0	-0.587962	0	0	0	0	0	0	0	-2.377867	0	0	0	0
1.032292	131.050156	230.753967	9.335796999999999	0.536632	0	-0.587569	0	0	0	0	0	0	0	-2.265821	0	0	0	0
1.033333	123.659744	214.779861	9.016226	0.535466	0	-0.587166	0	0	0	0	0	0	0	-2.149185	0	0	0	0
1.034375	116.369202	199.557373	8.701783000000001	0.534686	0	-0.586758	0	0	0	0	0	0	0	-2.028379	0	0	0	0
1.035417	109.20208	185.079529	8.39265	0.534319	0	-0.586349	0	0	0	0	0	0	0	-1.903825	0	0	0	0
1.036458	102.18084	171.33606	8.088893000000001	0.5343869999999999	0	-0.585945	0	0	0	0	0	0	0	-1.775937	0	0	0	0
1.0375	95.326645	158.313721	7.790514	0.534904	0	-0.585548	0	0	0	0	0	0	0	-1.645127	0	0	0	0
1.038542	88.659279	145.99675	7.497495	0.535882	0	-0.585161	0	0	0	0	0	0	0	-1.511799	0	0	0	0
1.039583	82.197014	134.367218	7.209849	0.53732	0	-0.5847830000000001	0	0	0	0	0	0	0	-1.37635	0	0	0	0
1.040625	75.95649	123.405579	6.927645	0.539212	0	-0.584413	0	0	0	0	0	0	0	-1.239168	0	0	0	0
1.041667	69.95264400000001	113.091202	6.651042	0.541543	0	-0.584046	0	0	0	0	0	0	0	-1.100632	0	0	0	0
1.042708	64.198624	103.402802	6.380307	0.544287	0	-0.583677	0	0	0	0	0	0	0	-0.961108	0	0	0	0
1.04375	58.705727	94.31899300000001	6.115824	0.547414	0	-0.583296	0	0	0	0	0	0	0	-0.820954	0	0	0	0
1.044792	53.48336	85.81867200000001	5.858098	0.550886	0	-0.582889	0	0	0	0	0	0	0	-0.680512	0	0	0	0
1.045833	48.538986	77.881409	5.607746	0.554662	0	-0.582443	0	0	0	0	0	0	0	-0.540113	0	0	0	0
1.046875	43.878117	70.487663	5.365489	0.558697	0	-0.581939	0	0	0	0	0	0	0	-0.400074	0	0	0	0
1.047917	39.504303	63.618965	5.132127	0.562953	0	-0.581357	0	0	0	0	0	0	0	-0.260697	0	0	0	0
1.048958	35.41914	57.257961	4.90852	0.567395	0	-0.5806789999999999	0	0	0	0	0	0	0	-0.122269	0	0	0	0
1.05	31.622292	51.38834	4.695552	0.572002	0	-0.579882	0	0	0	0	0	0	-0	0.014936	-0	0	0	0
1.051042	28.111513	45.994656	4.494105	0.57677	0	-0.57895	0	0	0	0	0	0	-0	0.150663	-0	0	0	0
1.052083	24.882698	41.062096	4.305021	0.581722	0	-0.577868	0	0	0	0	0	0	-0	0.284668	-0	0	0	0
1.053125	21.929932	36.57616	4.129074	0.586913	0	-0.576631	0	0	0	0	0	0	-0	0.416727	-0	0	0	0
1.054167	19.24555	32.522308	3.966928	0.59244	0	-0.575246	0	0	0	0	0	0	-0	0.5466299999999999	-0	0	0	0
1.055208	16.820215	28.885593	3.819117	0.598451	0	-0.573739	0	0	0	0	0	0	-0	0.674181	-0	0	0	0
1.05625	14.643023	25.650297	3.686008	0.605143	0	-0.572157	0	0	0	0	0	0	-0	0.799202	-0	0	0	0
1.057292	12.701607	22.799623	3.567785	0.612768	0	-0.570583	0	0	0	0	0	0	-0	0.92153	-0	0	0	0
1.058333	10.98229	20.315428	3.464427	0.621615	0	-0.569133	0	0	0	0	0	0	-0	1.041015	-0	0	0	0
1.059375	9.470261000000001	18.178019	3.375698	0.631983	0	-0.567961	0	0	0	0	0	0	-0	1.157525	-0	0	0	0
1.060417	8.149768	16.366049	3.301138	0.644134	0	-0.567252	0	0	0	0	0	0	-0	1.270938	-0	0	0	0
1.061458	7.004358	14.856498	3.240068	0.658224	0	-0.567206	0	0	0	0	0	0	-0	1.381149	-0	0	0	0
1.0625	6.017137	13.624742	3.191593	0.6742320000000001	0	-0.568006	0	0	0	0	0	0	-0	1.488065	-0	0	0	0
1.063542	5.171033	12.644713	3.154617	0.691902	0	-0.569786	0	0	0	0	0	0	-0	1.591606	-0	0	0	0
1.064583	4.449094	11.88915	3.127862	0.710722	0	-0.57259	0	0	0	0	0	0	-0	1.691701	-0	0	0	0
1.065625	3.834757	11.329904	3.109895	0.729971	0	-0.576352	0	0	0	0	0	0	-0	1.788294	-0	0	0	0
1.066667	3.312115	10.938326	3.099157	0.748815	0	-0.5809	0	0	0	0	0	0	-0	1.881336	-0	0	0	0
1.067708	2.866157	10.685686	3.093997	0.766438	0	-0.585983	0	0	0	0	0	0	-0	1.97079	-0	0	0	0
1.06875	2.482968	10.543626	3.092711	0.782153	0	-0.591314	0	0	0	0	0	0	-0	2.056625	-0	0	0	0
1.069792	2.149882	10.484622	3.093583	0.795471	0	-0.596615	0	0	0	0	0	0	-0	2.138821	-0	0	0	0
1.070833	1.855595	10.482453	3.094925	0.806119	0	-0.601651	0	0	0	0	0	0	-0	2.217362	-0	0	0	0
1.071875	1.590222	10.51264	3.095123	0.8140039999999999	0	-0.606241	0	0	0	0	0	0	-0	2.292239	-0	0	0	0
1.072917	1.345317	10.552859	3.092673	0.8191659999999999	0	-0.610264	0	0	0	0	0	0	-0	2.36345	-0	0	0	0
1.073958	1.11384	10.583305	3.086223	0.821728	0	-0.613649	0	0	0	0	0	0	-0	2.430995	-0	0	0	0
1.075	0.890109	10.586998	3.074609	0.821843	0	-0.616362	0	0	0	0	0	0	-0	2.494879	-0	0	0	0
1.076042	0.6697149999999999	10.550021	3.056885	0.819667	0	-0.618395	0	0	0	0	0	0	-0	2.555111	-0	0	0	0
1.077083	0.449425	10.461685	3.032352	0.815339	0	-0.619753	0	0	0	0	0	0	-0	2.611701	-0	0	0	0
1.078125	0.227085	10.314604	3.000575	0.808972	0	-0.620452	0	0	0	0	0	0	-0	2.664662	-0	0	0	0
1.079167	0.001508	10.104691	2.9614	0.800644	0	-0.620507	0	0	0	0	0	0	-0	2.714006	-0	0	0	0
1.080208	0	0	0	0	0	0	0	0	0	0	0	0	0	0	0	0	0	0
1.08125	0	0	0	0	0	0	0	0	0	0	0	0	0	0	0	0	0	0
1.082292	0	0	0	0	0	0	0	0	0	0	0	0	0	0	0	0	0	0
1.083333	0	0	0	0	0	0	0	0	0	0	0	0	0	0	0	0	0	0
1.084375	0	0	0	0	0	0	0	0	0	0	0	0	0	0	0	0	0	0
1.085417	0	0	0	0	0	0	0	0	0	0	0	0	0	0	0	0	0	0
1.086458	0	0	0	0	0	0	0	0	0	0	0	0	0	0	0	0	0	0
1.0875	0	0	0	0	0	0	0	0	0	0	0	0	0	0	0	0	0	0
1.088542	0	0	0	0	0	0	0	0	0	0	0	0	0	0	0	0	0	0
1.089583	0	0	0	0	0	0	0	0	0	0	0	0	0	0	0	0	0	0
1.090625	0	0	0	0	0	0	0	0	0	0	0	0	0	0	0	0	0	0
1.091667	0	0	0	0	0	0	0	0	0	0	0	0	0	0	0	0	0	0
1.092708	0	0	0	0	0	0	0	0	0	0	0	0	0	0	0	0	0	0
1.09375	0	0	0	0	0	0	0	0	0	0	0	0	0	0	0	0	0	0
1.094792	0	0	0	0	0	0	0	0	0	0	0	0	0	0	0	0	0	0
1.095833	0	0	0	0	0	0	0	0	0	0	0	0	0	0	0	0	0	0
1.096875	0	0	0	0	0	0	0	0	0	0	0	0	0	0	0	0	0	0
1.097917	0	0	0	0	0	0	0	0	0	0	0	0	0	0	0	0	0	0
1.098958	0	0	0	0	0	0	0	0	0	0	0	0	0	0	0	0	0	0
1.1	0	0	0	0	0	0	0	0	0	0	0	0	0	0	0	0	0	0
1.101042	0	0	0	0	0	0	0	0	0	0	0	0	0	0	0	0	0	0
1.102083	0	0	0	0	0	0	0	0	0	0	0	0	0	0	0	0	0	0
1.103125	0	0	0	0	0	0	0	0	0	0	0	0	0	0	0	0	0	0
1.104167	0	0	0	0	0	0	0	0	0	0	0	0	0	0	0	0	0	0
1.105208	0	0	0	0	0	0	0	0	0	0	0	0	0	0	0	0	0	0
1.10625	0	0	0	0	0	0	0	0	0	0	0	0	0	0	0	0	0	0
1.107292	0	0	0	0	0	0	0	0	0	0	0	0	0	0	0	0	0	0
1.108333	0	0	0	0	0	0	0	0	0	0	0	0	0	0	0	0	0	0
1.109375	0	0	0	0	0	0	0	0	0	0	0	0	0	0	0	0	0	0
1.110417	0	0	0	0	0	0	0	0	0	0	0	0	0	0	0	0	0	0
1.111458	0	0	0	0	0	0	0	0	0	0	0	0	0	0	0	0	0	0
1.1125	0	0	0	0	0	0	0	0	0	0	0	0	0	0	0	0	0	0
1.113542	0	0	0	0	0	0	0	0	0	0	0	0	0	0	0	0	0	0
1.114583	0	0	0	0	0	0	0	0	0	0	0	0	0	0	0	0	0	0
1.115625	0	0	0	0	0	0	0	0	0	0	0	0	0	0	0	0	0	0
1.116667	0	0	0	0	0	0	0	0	0	0	0	0	0	0	0	0	0	0
1.117708	0	0	0	0	0	0	0	0	0	0	0	0	0	0	0	0	0	0
1.11875	0	0	0	0	0	0	0	0	0	0	0	0	0	0	0	0	0	0
1.119792	0	0	0	0	0	0	0	0	0	0	0	0	0	0	0	0	0	0
1.120833	0	0	0	0	0	0	0	0	0	0	0	0	0	0	0	0	0	0
1.121875	0	0	0	0	0	0	0	0	0	0	0	0	0	0	0	0	0	0
1.122917	0	0	0	0	0	0	0	0	0	0	0	0	0	0	0	0	0	0
1.123958	0	0	0	0	0	0	0	0	0	0	0	0	0	0	0	0	0	0
1.125	0	0	0	0	0	0	0	0	0	0	0	0	0	0	0	0	0	0
1.126042	0	0	0	0	0	0	0	0	0	0	0	0	0	0	0	0	0	0
1.127083	0	0	0	0	0	0	0	0	0	0	0	0	0	0	0	0	0	0
1.128125	0	0	0	0	0	0	0	0	0	0	0	0	0	0	0	0	0	0
1.129167	0	0	0	0	0	0	0	0	0	0	0	0	0	0	0	0	0	0
1.130208	0	0	0	0	0	0	0	0	0	0	0	0	0	0	0	0	0	0
1.13125	0	0	0	0	0	0	0	0	0	0	0	0	0	0	0	0	0	0
1.132292	0	0	0	0	0	0	0	0	0	0	0	0	0	0	0	0	0	0
1.133333	0	0	0	0	0	0	0	0	0	0	0	0	0	0	0	0	0	0
1.134375	0	0	0	0	0	0	0	0	0	0	0	0	0	0	0	0	0	0
1.135417	0	0	0	0	0	0	0	0	0	0	0	0	0	0	0	0	0	0
1.136458	0	0	0	0	0	0	0	0	0	0	0	0	0	0	0	0	0	0
1.1375	0	0	0	0	0	0	-3.750417	10.479012	3.59122	0.86992	0	-0.6165389999999999	0	0	0	-0	0.353857	-0
1.138542	0	0	0	0	0	0	-4.163775	11.593614	3.648585	0.890385	0	-0.615255	0	0	0	-0	0.261217	-0
1.139583	0	0	0	0	0	0	-4.600087	12.951132	3.715846	0.912994	0	-0.61444	0	0	0	-0	0.170699	-0
1.140625	0	0	0	0	0	0	-5.066369	14.587496	3.792439	0.936916	0	-0.614086	0	0	0	-0	0.082691	-0
1.141667	0	0	0	0	0	0	-5.57106	16.542809	3.877594	0.961344	0	-0.614144	0	0	0	0	-0.002405	0
1.142708	0	0	0	0	0	0	-6.1239	18.861774	3.970366	0.985564	0	-0.614538	0	0	0	0	-0.084179	0
1.14375	0	0	0	0	0	0	-6.735754	21.594147	4.069653	1.008993	0	-0.615181	0	0	0	0	-0.16221	0
1.144792	0	0	0	0	0	0	-7.418382	24.795126	4.174218	1.031193	0	-0.61599	0	0	0	0	-0.236073	0
1.145833	0	0	0	0	0	0	-8.184158	28.525764	4.28272	1.051864	0	-0.616887	0	0	0	0	-0.305337	0
